<?xml version="1.0" standalone="no"?><!DOCTYPE svg PUBLIC "-//W3C//DTD SVG 1.1//EN" "http://www.w3.org/Graphics/SVG/1.1/DTD/svg11.dtd"><svg t="1513741194369" class="icon" style="" viewBox="0 0 1024 1024" version="1.1" xmlns="http://www.w3.org/2000/svg" p-id="10072" xmlns:xlink="http://www.w3.org/1999/xlink" width="200" height="200"><defs><style type="text/css"></style></defs><path d="M792.15301513 914.11279297h-496.68695068v-682.94393921h217.29940797v283.26516723l109.92315673-83.48757934 107.37789917 83.48757934v-283.26516723h124.17214966v620.85827637c0 34.25509643-27.82974243 62.08401489-62.08566285 62.08401489zM622.68862915 390.26516724l-78.87908936 62.08483886v-252.22357177h155.21292115v252.22357177l-76.33383179-62.08483886zM202.33880615 169.08401489v31.04241944c0 17.15927124 13.8831482 31.04406739 31.04159546 31.04406738h31.04406738v682.94393921h-31.04406738c-34.31607055 0-62.08401489-27.82891846-62.08401489-62.08483887v-682.94476318c0-34.31607055 27.76794434-62.08483886 62.08401489-62.08483887h558.77261352c22.91802979 0 42.68353271 12.55160523 53.47677613 31.04241943h-612.24938965c-17.15927124 0-31.04159546 13.88397217-31.04159546 31.04241944z" fill="#afcd50" p-id="10073"></path></svg>