<?xml version="1.0" standalone="no"?><!DOCTYPE svg PUBLIC "-//W3C//DTD SVG 1.1//EN" "http://www.w3.org/Graphics/SVG/1.1/DTD/svg11.dtd"><svg t="1513741176244" class="icon" style="" viewBox="0 0 1024 1024" version="1.1" xmlns="http://www.w3.org/2000/svg" p-id="9930" xmlns:xlink="http://www.w3.org/1999/xlink" width="200" height="200"><defs><style type="text/css"></style></defs><path d="M899.19 749.46l1.41 9.92L571.14 612.8l-0.02-9.3 328.07 145.96z" fill="#A2CAFB" p-id="9931"></path><path d="M899.19 706.25v43.21L571.12 603.5v-43.22l328.07 145.97z" fill="#A5CCFB" p-id="9932"></path><path d="M900.6 696.34l-1.41 9.91-328.07-145.97 0.02-10.52L900.6 696.34z" fill="#A9CFFC" p-id="9933"></path><path d="M571.12 603.5l0.02 9.3L126 801.75l1.41-9.9L571.12 603.5z" fill="#D4E7FD" p-id="9934"></path><path d="M571.12 560.28v43.22L127.41 791.85v-43.22l443.71-188.35z" fill="#DCEBFE" p-id="9935"></path><path d="M571.14 549.76l-0.02 10.52-443.71 188.35-1.41-9.92 445.14-188.95z" fill="#E3EFFE" p-id="9936"></path><path d="M439.84 983.01l0.01 9.3L24.47 807.5l-1.42-9.92 416.79 185.43z" fill="#A2CAFB" p-id="9937"></path><path d="M1003.55 743.73l-1.42 9.91-562.28 238.67-0.01-9.3 563.71-239.28z" fill="#D4E7FD" p-id="9938"></path><path d="M439.84 939.79v43.22L23.05 797.58v-43.22l416.79 185.43z" fill="#A5CCFB" p-id="9939"></path><path d="M1003.55 700.51v43.22L439.84 983.01v-43.22l563.71-239.28z" fill="#DCEBFE" p-id="9940"></path><path d="M24.47 744.46l562.28-238.68 415.38 184.81-562.28 238.68z m876.13-48.12L571.14 549.76 126 738.71l329.46 146.58 445.15-189" fill="#D5E7FD" p-id="9941"></path><path d="M439.85 929.27l-0.01 10.52L23.05 754.36l1.42-9.9 415.38 184.81z" fill="#A9CFFC" p-id="9942"></path><path d="M1002.13 690.59l1.42 9.92-563.71 239.28 0.01-10.52 562.28-238.68z" fill="#E3EFFE" p-id="9943"></path><path d="M350.93 458.09L771.9 272.2 596.28 758.36 350.93 458.09z" fill="#3182ED" p-id="9944"></path><path d="M350.93 458.09l-139.24-50.23 420.96-185.88L771.9 272.2 350.93 458.09z" fill="#307CE7" p-id="9945"></path><path d="M596.28 758.36l-139.24-50.22-245.35-300.28 139.24 50.23 245.35 300.27z" fill="#2B6CD4" p-id="9946"></path><path d="M737.38 60.96l135.64 166.01-232.73 102.77 97.09-268.78z" fill="#3182ED" p-id="9947"></path><path d="M501.067 279.515l96.945-268.834 139.252 50.216-96.945 268.834z" fill="#2E77E1" p-id="9948"></path><path d="M338.22 148.35l92.53 113.23-158.76 70.11 66.23-183.34z" fill="#DF0B69" p-id="9949"></path><path d="M132.783 281.468l66.13-183.381 139.252 50.216-66.13 183.381z" fill="#B81878" p-id="9950"></path></svg>