<?xml version="1.0" standalone="no"?><!DOCTYPE svg PUBLIC "-//W3C//DTD SVG 1.1//EN" "http://www.w3.org/Graphics/SVG/1.1/DTD/svg11.dtd"><svg t="1513753697263" class="icon" style="" viewBox="0 0 1024 1024" version="1.1" xmlns="http://www.w3.org/2000/svg" p-id="6707" xmlns:xlink="http://www.w3.org/1999/xlink" width="200" height="200"><defs><style type="text/css"></style></defs><path d="M830.702933 102.6048 192.785067 102.6048c-78.301867 0-141.755733 63.453867-141.755733 141.755733l0 460.629333c0 78.336 63.453867 141.789867 141.755733 141.789867L192.785067 1024l284.603733-177.117867 353.314133 0c78.267733 0 141.687467-63.488 141.687467-141.789867L972.3904 244.360533C972.3904 166.058667 908.970667 102.6048 830.702933 102.6048zM290.133333 524.8c-28.296533 0-51.2-22.9376-51.2-51.2s22.903467-51.2 51.2-51.2 51.2 22.9376 51.2 51.2S318.429867 524.8 290.133333 524.8zM512 524.8c-28.296533 0-51.2-22.9376-51.2-51.2s22.903467-51.2 51.2-51.2c28.2624 0 51.2 22.9376 51.2 51.2S540.2624 524.8 512 524.8zM733.866667 524.8c-28.2624 0-51.2-22.9376-51.2-51.2s22.9376-51.2 51.2-51.2 51.2 22.9376 51.2 51.2S762.129067 524.8 733.866667 524.8z" p-id="6708" fill="#8a8a8a"></path></svg>