<?xml version="1.0" standalone="no"?><!DOCTYPE svg PUBLIC "-//W3C//DTD SVG 1.1//EN" "http://www.w3.org/Graphics/SVG/1.1/DTD/svg11.dtd"><svg t="1513321783266" class="icon" style="" viewBox="0 0 1024 1024" version="1.1" xmlns="http://www.w3.org/2000/svg" p-id="2292" xmlns:xlink="http://www.w3.org/1999/xlink" width="200" height="200"><defs><style type="text/css"></style></defs><path d="M936.475598 336.511173 512.827855 124.68986 89.180112 336.511173l423.647743 211.82643L936.475598 336.511173 936.475598 336.511173zM512.827855 181.241854 823.325561 336.517313 512.827855 491.763097 202.330148 336.512197 512.827855 181.241854 512.827855 181.241854z" p-id="2293" fill="#1296db"></path><path d="M879.322923 464.738603 879.322923 464.738603 511.171122 647.738497 143.912667 464.292442 143.912667 464.292442 141.647067 465.425242 87.523379 492.486574 511.171122 704.313004 934.818865 492.486574Z" p-id="2294" fill="#1296db"></path><path d="M879.322923 623.249757 879.322923 623.249757 511.171122 806.248627 143.912667 622.802572 143.912667 622.802572 141.647067 623.935372 87.523379 650.996704 511.171122 862.823134 934.818865 650.996704Z" p-id="2295" fill="#1296db"></path></svg>