<?xml version="1.0" standalone="no"?><!DOCTYPE svg PUBLIC "-//W3C//DTD SVG 1.1//EN" "http://www.w3.org/Graphics/SVG/1.1/DTD/svg11.dtd"><svg t="1513323722600" class="icon" style="" viewBox="0 0 1024 1024" version="1.1" xmlns="http://www.w3.org/2000/svg" p-id="1207" xmlns:xlink="http://www.w3.org/1999/xlink" width="200" height="200"><defs><style type="text/css"></style></defs><path d="M440.32 168.96h-230.4c-23.04 0-43.52 17.92-43.52 43.52v230.4c0 23.04 17.92 43.52 43.52 43.52h230.4c23.04 0 43.52-17.92 43.52-43.52v-230.4c-2.56-25.6-20.48-43.52-43.52-43.52z m-10.24 261.12H220.16V220.16h212.48v209.92z" p-id="1208" fill="#999999"></path><path d="M440.32 867.84c23.04 0 43.52-17.92 43.52-43.52v-230.4c0-23.04-17.92-43.52-43.52-43.52h-230.4c-23.04 0-43.52 17.92-43.52 43.52v230.4c0 23.04 17.92 43.52 43.52 43.52h230.4zM220.16 606.72h212.48V819.2H220.16v-212.48z" p-id="1209" fill="#999999"></path><path d="M826.88 481.28c23.04 0 43.52-17.92 43.52-43.52v-230.4c0-23.04-17.92-43.52-43.52-43.52h-230.4c-23.04 0-43.52 17.92-43.52 43.52v230.4c0 23.04 17.92 43.52 43.52 43.52h230.4zM606.72 220.16H819.2v212.48h-212.48V220.16z" p-id="1210" fill="#999999"></path><path d="M826.88 867.84c23.04 0 43.52-17.92 43.52-43.52v-230.4c0-23.04-17.92-43.52-43.52-43.52h-230.4c-23.04 0-43.52 17.92-43.52 43.52v230.4c0 23.04 17.92 43.52 43.52 43.52h230.4z m-220.16-261.12H819.2V819.2h-212.48v-212.48z" p-id="1211" fill="#999999"></path></svg>