<?xml version="1.0" standalone="no"?><!DOCTYPE svg PUBLIC "-//W3C//DTD SVG 1.1//EN" "http://www.w3.org/Graphics/SVG/1.1/DTD/svg11.dtd"><svg t="1513741145558" class="icon" style="" viewBox="0 0 1024 1024" version="1.1" xmlns="http://www.w3.org/2000/svg" p-id="9679" xmlns:xlink="http://www.w3.org/1999/xlink" width="200" height="200"><defs><style type="text/css"></style></defs><path d="M363.39229 1024S210.14059 889.324263 419.120181 599.07483c0 0 46.439909 44.117914 55.727892 83.591837 0 0 92.879819-69.659864 74.303854-253.097506 0 0 315.791383 208.979592 162.539683 592.108844 0 0 478.331066-134.675737 88.235828-719.818595 0 0-9.287982 81.269841-37.151928 109.133787 0 0-27.863946-273.995465-413.315193-410.993197 0 0 146.285714 280.961451-83.591836 487.619048 0 0-25.54195-62.693878-62.693878-116.099774 0 0-11.609977 130.031746-95.201814 202.013606-51.0839 44.117914-109.133787 394.739229 255.419501 450.46712z" fill="#DF6508" p-id="9680"></path></svg>