<?xml version="1.0" standalone="no"?><!DOCTYPE svg PUBLIC "-//W3C//DTD SVG 1.1//EN" "http://www.w3.org/Graphics/SVG/1.1/DTD/svg11.dtd"><svg t="1513764963996" class="icon" style="" viewBox="0 0 1024 1024" version="1.1" xmlns="http://www.w3.org/2000/svg" p-id="23585" xmlns:xlink="http://www.w3.org/1999/xlink" width="200" height="200"><defs><style type="text/css"></style></defs><path d="M512.644 25.433c-269.198 0-487.267 218.282-487.267 487.408v487.25h487.267c269.095 0 487.371-218.018 487.371-487.25 0-269.126-218.276-487.408-487.37-487.408z m95.408 649.922l-28.768 21.838c-35.717 27.136-49.095 37.23-63.826 51.873-2.363 2.433-5.594 3.734-9.033 3.734-3.439 0-6.636-1.337-9.069-3.734-11.065-11.065-21.419-18.925-41.953-34.57-13.028-9.903-28.994-22.08-50.779-39.261-57.502-45.272-136.296-107.273-136.296-196.115 0-86.39 65.921-132.995 128.01-132.995 41.85 0 80.797 19.554 110.087 55.151 29.324-35.63 68.342-55.227 110.313-55.227 61.95 0 127.852 46.333 127.852 132.169 0 93.409-88.834 160.9-136.538 197.137z" fill="#FF69B4" p-id="23586"></path></svg>