<?xml version="1.0" standalone="no"?><!DOCTYPE svg PUBLIC "-//W3C//DTD SVG 1.1//EN" "http://www.w3.org/Graphics/SVG/1.1/DTD/svg11.dtd"><svg t="1513753660535" class="icon" style="" viewBox="0 0 1024 1024" version="1.1" xmlns="http://www.w3.org/2000/svg" p-id="6216" xmlns:xlink="http://www.w3.org/1999/xlink" width="200" height="200"><defs><style type="text/css"></style></defs><path d="M865.501 464.245q0 14.428-5.862 27.505t-15.331 22.995-22.995 15.78-27.956 5.862h-26.152q29.759 0 50.951 19.84t21.192 48.697-21.192 49.599-50.951 20.742h-27.053q30.661 0 51.852 20.742t21.192 49.599q0 14.428-8.116 27.505t-22.094 22.545-32.013 14.88-36.974 5.411q29.759 0 48.245 21.192t18.487 50.049q0 18.036-10.37 31.112t-26.152 21.642-33.817 12.625-32.464 4.058h-377.848q-28.857 0-53.657-9.469t-43.286-27.053-28.857-41.933-10.37-55.009v-275.948q0-18.036 1.353-36.072t6.764-33.817 16.683-28.857 30.21-21.192q18.036-7.214 41.031-21.642t47.795-34.267 48.245-44.637 42.385-52.304 30.21-57.263 11.273-60.42q0.902-27.053 7.214-45.089t16.683-29.309 22.545-16.233 24.799-4.959q32.464 0 54.559 19.84t31.112 64.929q1.804 38.778-4.51 82.063-5.411 36.974-18.938 81.161t-41.482 87.474h261.519q29.759 0 50.951 19.388t21.192 48.246z" p-id="6217" fill="#8a8a8a"></path></svg>