<?xml version="1.0" standalone="no"?><!DOCTYPE svg PUBLIC "-//W3C//DTD SVG 1.1//EN" "http://www.w3.org/Graphics/SVG/1.1/DTD/svg11.dtd"><svg t="1513663721719" class="icon" style="" viewBox="0 0 1024 1024" version="1.1" xmlns="http://www.w3.org/2000/svg" p-id="831" xmlns:xlink="http://www.w3.org/1999/xlink" width="200" height="200"><defs><style type="text/css"></style></defs><path d="M927.46752 846.76608 738.92864 658.2272c45.42464-60.22144 70.90176-134.35904 70.90176-211.12832 0-37.95968-6.25664-76.60544-19.38432-114.50368C727.22432 149.82144 527.83104 53.00224 345.07776 116.1728 200.23296 166.2976 109.30176 301.93664 109.30176 447.09888c0 37.95968 6.28736 76.544 19.38432 114.50368 63.22176 182.77376 262.62528 279.64416 445.36832 216.4224 35.6864-12.34944 68.08576-29.92128 96.67584-51.51744l188.50816 188.50816c15.31904 15.31904 39.19872 16.27136 53.34016 2.12992l17.03936-17.03936C943.73888 885.9648 942.78656 862.08512 927.46752 846.76608zM543.01696 688.32256c-64.43008 22.28224-133.6832 18.14528-195.01056-11.65312-61.26592-29.7984-107.34592-81.7152-129.62816-146.13504-9.39008-27.04384-14.15168-55.12192-14.15168-83.43552 0-108.6976 69.07904-205.62944 171.86816-241.23392 64.43008-22.28224 133.6832-18.14528 195.01056 11.65312 61.35808 29.7984 107.37664 81.7152 129.65888 146.08384 9.35936 27.15648 14.12096 55.2448 14.12096 83.49696C714.87488 555.79648 645.82656 652.72832 543.01696 688.32256z" p-id="832" fill="#707070"></path></svg>