<?xml version="1.0" standalone="no"?><!DOCTYPE svg PUBLIC "-//W3C//DTD SVG 1.1//EN" "http://www.w3.org/Graphics/SVG/1.1/DTD/svg11.dtd"><svg t="1513764973735" class="icon" style="" viewBox="0 0 1024 1024" version="1.1" xmlns="http://www.w3.org/2000/svg" p-id="23708" xmlns:xlink="http://www.w3.org/1999/xlink" width="200" height="200"><defs><style type="text/css"></style></defs><path d="M153.6 0h716.8C955.231 0 1024 68.769 1024 153.6v716.8c0 84.831-68.769 153.6-153.6 153.6H153.6C68.769 1024 0 955.231 0 870.4V153.6C0 68.769 68.769 0 153.6 0z" fill="#FBC863" p-id="23709"></path><path d="M511.997 682.918l-110.414 52.501c-19.761 9.396-43.249 0.673-52.46-19.485a40.994 40.994 0 0 1-3.23-23.186l17.3-113.767-81.478-80.221c-15.687-15.445-16.13-40.939-0.988-56.941 5.934-6.271 13.701-10.409 22.137-11.792l117.168-19.22 57.473-105.317c10.604-19.432 34.644-26.416 53.694-15.599 6.422 3.646 11.718 9.049 15.292 15.599l57.473 105.317 117.168 19.22c21.526 3.531 36.171 24.194 32.709 46.152-1.357 8.605-5.413 16.528-11.56 22.581l-81.478 80.221 17.3 113.767c3.342 21.977-11.415 42.557-32.96 45.966a38.78 38.78 0 0 1-22.73-3.295l-110.414-52.501z" fill="#FFFFFF" p-id="23710"></path></svg>